<svg xmlns="http://www.w3.org/2000/svg" xmlns:xlink="http://www.w3.org/1999/xlink" version="1.1" width="100%" height="100%" viewBox="0 0 256 256" xml:space="preserve">

<defs>
</defs>
<g style="stroke: none; stroke-width: 0; stroke-dasharray: none; stroke-linecap: butt; stroke-linejoin: miter; stroke-miterlimit: 10; fill: none; fill-rule: nonzero; opacity: 1;" transform="translate(1.4065934065934016 1.4065934065934016) scale(2.81 2.81)" >
	<path d="M 8.39 46.885 c 0.042 -0.014 0.085 -0.022 0.126 -0.039 c 0.09 -0.037 0.173 -0.087 0.255 -0.136 c 0.029 -0.017 0.061 -0.029 0.089 -0.048 c 0.109 -0.073 0.211 -0.156 0.304 -0.249 l 7.856 -7.856 c 0.781 -0.781 0.781 -2.047 0 -2.828 c -0.78 -0.781 -2.048 -0.781 -2.828 0 l -4.055 4.055 C 12.666 22.796 27.347 9.721 45.028 9.721 c 13.718 0 26.298 8.052 32.051 20.512 c 0.463 1.004 1.653 1.439 2.653 0.978 c 1.003 -0.463 1.44 -1.651 0.978 -2.654 C 74.306 14.684 60.301 5.721 45.028 5.721 c -19.516 0 -35.746 14.308 -38.768 32.985 l -2.55 -4.191 c -0.574 -0.943 -1.803 -1.244 -2.748 -0.669 c -0.944 0.574 -1.243 1.805 -0.669 2.748 L 6.04 46.04 c 0.007 0.012 0.018 0.021 0.026 0.033 c 0.061 0.096 0.132 0.185 0.209 0.269 c 0.019 0.02 0.033 0.044 0.053 0.064 c 0.098 0.099 0.207 0.187 0.324 0.265 c 0.031 0.021 0.066 0.035 0.098 0.053 c 0.089 0.052 0.181 0.1 0.278 0.138 c 0.046 0.018 0.094 0.029 0.141 0.044 c 0.089 0.027 0.179 0.05 0.272 0.064 c 0.024 0.004 0.045 0.014 0.069 0.016 C 7.59 46.995 7.669 47 7.748 47 c 0.133 0 0.265 -0.014 0.394 -0.04 C 8.229 46.943 8.309 46.913 8.39 46.885 z" style="stroke: none; stroke-width: 1; stroke-dasharray: none; stroke-linecap: butt; stroke-linejoin: miter; stroke-miterlimit: 10; fill: rgb(0,0,0); fill-rule: nonzero; opacity: 1;" transform=" matrix(1 0 0 1 0 0) " stroke-linecap="round" />
	<path d="M 89.709 53.407 l -5.748 -9.447 c -0.008 -0.012 -0.019 -0.022 -0.026 -0.034 c -0.06 -0.094 -0.13 -0.181 -0.205 -0.263 c -0.02 -0.022 -0.036 -0.048 -0.057 -0.069 c -0.098 -0.099 -0.207 -0.187 -0.324 -0.264 c -0.032 -0.021 -0.067 -0.035 -0.1 -0.054 c -0.089 -0.052 -0.18 -0.099 -0.277 -0.137 c -0.047 -0.018 -0.096 -0.03 -0.144 -0.045 c -0.087 -0.026 -0.175 -0.049 -0.266 -0.063 c -0.025 -0.004 -0.047 -0.014 -0.072 -0.017 c -0.035 -0.004 -0.069 0.002 -0.104 -0.001 C 82.34 43.01 82.297 43 82.252 43 c -0.041 0 -0.079 0.01 -0.119 0.012 c -0.062 0.004 -0.123 0.009 -0.185 0.019 c -0.083 0.013 -0.164 0.032 -0.243 0.055 c -0.055 0.016 -0.11 0.03 -0.164 0.051 c -0.086 0.033 -0.167 0.074 -0.247 0.118 c -0.042 0.023 -0.086 0.043 -0.127 0.069 c -0.119 0.077 -0.231 0.164 -0.331 0.264 l -7.856 7.856 c -0.781 0.781 -0.781 2.047 0 2.828 c 0.781 0.781 2.047 0.781 2.828 0 l 4.055 -4.055 c -2.529 16.988 -17.21 30.063 -34.891 30.063 c -14.212 0 -26.972 -8.458 -32.508 -21.548 c -0.43 -1.018 -1.603 -1.492 -2.621 -1.062 c -1.017 0.43 -1.493 1.603 -1.062 2.621 c 6.163 14.573 20.369 23.989 36.192 23.989 c 19.515 0 35.746 -14.308 38.768 -32.983 l 2.55 4.192 c 0.377 0.618 1.036 0.96 1.711 0.96 c 0.354 0 0.713 -0.094 1.038 -0.291 C 89.983 55.582 90.283 54.351 89.709 53.407 z" style="stroke: none; stroke-width: 1; stroke-dasharray: none; stroke-linecap: butt; stroke-linejoin: miter; stroke-miterlimit: 10; fill: rgb(0,0,0); fill-rule: nonzero; opacity: 1;" transform=" matrix(1 0 0 1 0 0) " stroke-linecap="round" />
</g>
</svg>